<svg xmlns="http://www.w3.org/2000/svg" viewBox="0 0 240 320" role="img" aria-label="Creekside High trouser uniform">
  <rect width="240" height="320" fill="#e2e9e4"/>
  <ellipse cx="120" cy="294" rx="74" ry="10" fill="#cbd7cf"/>
  <!-- shirt -->
  <path d="M83 72 L104 60 H136 L157 72 L165 150 H75 Z" fill="#f8faf9" stroke="#aebdb4" stroke-width="2"/>
  <path d="M104 60 L120 78 L136 60" fill="none" stroke="#aebdb4" stroke-width="2"/>
  <!-- tie -->
  <path d="M116 76 H124 L129 121 L120 134 L111 121 Z" fill="#1d5ca6"/>
  <path d="M113 91 L126 98 M112 105 L128 112" stroke="#d9e6f4" stroke-width="3"/>
  <!-- blazer -->
  <path d="M72 76 L100 64 L112 88 L104 157 H64 L70 102 Z" fill="#142d4b" stroke="#0d2037" stroke-width="2"/>
  <path d="M168 76 L140 64 L128 88 L136 157 H176 L170 102 Z" fill="#142d4b" stroke="#0d2037" stroke-width="2"/>
  <path d="M100 64 L120 91 L140 64" fill="none" stroke="#48647f" stroke-width="3"/>
  <path d="M145 92 q10 -7 20 0 v16 q-10 10 -20 0z" fill="#2f78bd" stroke="#e8f1f8" stroke-width="1.5"/>
  <path d="M149 99 q6 -5 12 0 q-5 0 -8 5 q5 -1 8 2 q-7 4 -12 -1z" fill="#fff"/>
  <!-- trousers -->
  <path d="M82 153 H158 L151 278 H126 L120 190 L114 278 H89 Z" fill="#172f4d" stroke="#0d2037" stroke-width="2"/>
  <path d="M120 159 V190" stroke="#435c75" stroke-width="2"/>
  <!-- shoes -->
  <path d="M86 273 H114 V291 Q110 298 83 297 Q79 288 86 273 Z M126 273 H154 V291 Q158 298 128 297 Q122 289 126 273 Z" fill="#101820"/>
  <text x="120" y="28" text-anchor="middle" fill="#20362d" font-family="Georgia,serif" font-size="14" letter-spacing="1">CREEKSIDE HIGH</text>
  <text x="120" y="45" text-anchor="middle" fill="#587566" font-family="Arial,sans-serif" font-size="7" letter-spacing="1.5">TROUSER UNIFORM</text>
</svg>